<svg width="16" height="19" viewBox="0 0 16 19" fill="none" xmlns="http://www.w3.org/2000/svg">
<path fill-rule="evenodd" clip-rule="evenodd" d="M8.27954 0C12.3877 0 15.717 3.3985 15.717 7.59063C15.717 12.9833 9.20792 18.1344 8.36879 18.7766L8.30229 18.8265L8.27954 18.844L8.25679 18.8265L8.19029 18.7766C7.35029 18.1344 0.842041 12.9841 0.842041 7.59063C0.842041 3.3985 4.17142 0 8.27954 0ZM8.27954 3.157C7.18362 3.157 6.13258 3.59235 5.35764 4.36729C4.58271 5.14223 4.14735 6.19326 4.14735 7.28919C4.14735 8.38511 4.58271 9.43615 5.35764 10.2111C6.13258 10.986 7.18362 11.4214 8.27954 11.4214C9.37547 11.4214 10.4265 10.986 11.2014 10.2111C11.9764 9.43615 12.4117 8.38511 12.4117 7.28919C12.4117 6.19326 11.9764 5.14223 11.2014 4.36729C10.4265 3.59235 9.37547 3.157 8.27954 3.157Z" fill="white"/>
</svg>
